<?xml version="1.0" encoding="UTF-8" standalone="no"?>
<svg
   width="98.490273"
   height="40"
   viewBox="0 0 98.490275 40"
   fill="#0058a3"
   version="1.1"
   id="svg3"
   sodipodi:docname="ikea.svg"
   xmlns:inkscape="http://www.inkscape.org/namespaces/inkscape"
   xmlns:sodipodi="http://sodipodi.sourceforge.net/DTD/sodipodi-0.dtd"
   xmlns="http://www.w3.org/2000/svg"
   xmlns:svg="http://www.w3.org/2000/svg">
  <defs
     id="defs3" />
  <sodipodi:namedview
     id="namedview3"
     pagecolor="#ffffff"
     bordercolor="#000000"
     borderopacity="0.25"
     inkscape:showpageshadow="2"
     inkscape:pageopacity="0.0"
     inkscape:pagecheckerboard="0"
     inkscape:deskcolor="#d1d1d1"
     showgrid="false" />
  <path
     id="path1"
     style="display:inline;fill:#ffffff"
     d="m 0,0 v 40 h 98.480469 l 0.0098,-40 z M 49.230469,2.3007812 C 76.730441,2.3007813 96.560547,10.32001 96.560547,20 c 0,9.67999 -19.82034,17.699219 -47.320313,17.699219 C 21.750262,37.699219 1.9199219,29.66999 1.9199219,20 c 0,-9.66999 19.8105741,-17.6992188 47.3105471,-17.6992188 z" />
  <path
     d="m 46.45,25.67 c 0.31,0.46 0.65,0.88 1.04,1.26 H 36.84 c 0,-0.42 -0.4,-1.28 -0.86,-1.96 -0.47,-0.68 -2.9,-4.4 -2.9,-4.4 v 5.1 c 0,0.43 0,0.84 0.22,1.26 h -8.88 c 0.2,-0.42 0.2,-0.83 0.2,-1.26 v -12.1 c 0,-0.43 0,-0.84 -0.2,-1.26 h 8.88 c -0.22,0.42 -0.22,0.83 -0.22,1.25 v 5.28 c 0,0 2.84,-3.68 3.49,-4.56 0.5,-0.65 1.1,-1.56 1.1,-1.99 h 9.26 a 10.1,10.1 0 0 0 -1.92,1.9 l -3.39,4.13 c 0,0 4.27,6.52 4.83,7.35 z m 2.78,-12.1 v 12.1 c 0,0.43 0,0.84 -0.21,1.26 h 17.13 v -4.05 c -0.42,0.21 -0.83,0.21 -1.25,0.21 h -7.21 v -1.92 h 6.93 V 18.1 h -6.93 v -1.91 h 7.2 c 0.43,0 0.84,0 1.26,0.2 V 12.33 H 49.03 c 0.2,0.41 0.2,0.82 0.2,1.24 z m 40.68,12.1 c 0.14,0.47 0.38,0.9 0.69,1.26 H 81.31 C 81.35,26.51 81.2,26.1 81.03,25.67 l -0.34,-0.83 -0.08,-0.21 h -5.35 l -0.09,0.21 -0.3,0.83 c -0.13,0.43 -0.29,0.84 -0.23,1.26 H 67.3 c 0.3,-0.37 0.52,-0.79 0.66,-1.26 l 4.4,-12.1 c 0.15,-0.43 0.3,-0.84 0.25,-1.26 H 85 c -0.12,0.42 0.1,0.83 0.26,1.25 z m -10.47,-4.13 -1.3,-3.39 a 7.49,7.49 0 0 1 -0.29,-0.96 c -0.05,0.33 -0.15,0.65 -0.25,0.96 -0.04,0.14 -0.6,1.62 -1.23,3.39 z M 20.2,12.3 h -9.65 c 0.2,0.42 0.2,0.83 0.2,1.25 v 12.11 c 0,0.43 0,0.84 -0.2,1.26 H 20.2 C 19.99,26.5 19.99,26.09 19.99,25.66 v -12.1 c 0,-0.43 0,-0.85 0.21,-1.26 z m 66.73,1.16 a 1.84,1.84 0 0 1 1.8,-1.92 h 0.12 c 1.05,-0.02 1.9,0.81 1.92,1.84 v 0.08 a 1.9256492,1.9256492 0 1 1 -3.85,0.1 z m 0.39,0 c 0,0.84 0.67,1.53 1.53,1.55 0.85,0 1.54,-0.68 1.56,-1.54 0,-0.85 -0.68,-1.54 -1.54,-1.55 -0.82,-0.03 -1.51,0.6 -1.54,1.42 z m 1.15,1.14 H 88.13 V 12.3 H 89 c 0.41,0.01 0.72,0.34 0.72,0.75 0,0.28 -0.15,0.53 -0.4,0.67 l 0.49,0.9 h -0.38 l -0.45,-0.83 h -0.5 z m 0,-1.14 h 0.47 c 0.22,0 0.42,-0.16 0.42,-0.39 a 0.39,0.39 0 0 0 -0.38,-0.42 h -0.5 z"
     id="path3"
     style="fill:#ffffff" />
</svg>
